#!OML:ASF F:\VICON\USERDATA\Patient Classification 1\PLAYGROUND\JustinFriday\JustinFriday.ASF
:FULLY-SPECIFIED
:DEGREES
2309
root 12.9537 27.3208 46.0593 195.742 -0.394932 -174.523
lowerback 48.4584 -8.90342 6.57852
upperback -4.72008 -7.19807 -0.31245
thorax -28.126 -3.07592 0.67341
lowerneck -26.6981 11.3342 -34.535
upperneck 18.2362 23.5808 24.9624
head 2.3261 12.2895 14.5701
rclavicle 7.95139e-015 2.54444e-014
rhumerus -0.181398 45.1809 -82.1149
rradius 37.7922
rwrist 21.7787
rhand -49.6795 -3.08189
rfingers 7.12502
rthumb -22.2815 -31.8173
lclavicle 7.95139e-015 2.54444e-014
lhumerus -8.70943 -13.6216 70.0951
lradius 38.0046
lwrist -29.861
lhand -36.2789 -42.6525
lfingers 7.12502
lthumb -9.3789 -12.8812
rfemur -27.7569 1.20895 27.7745
rtibia 31.4254
rfoot -31.0216 -7.48406
rtoes 9.62362
lfemur -29.2595 4.25629 -15.5578
ltibia 34.8249
lfoot -30.1024 -2.34994
ltoes 0.177398
2310
root 12.9636 27.3131 46.1018 195.455 0.574633 -174.333
lowerback 48.9899 -8.29323 5.75806
upperback -4.70898 -6.81677 -0.260303
thorax -28.1524 -2.82178 0.905308
lowerneck -27.0305 11.076 -34.4269
upperneck 18.4963 23.2998 25.0231
head 2.53833 12.1559 14.7023
rclavicle 1.66979e-014 -4.45278e-014
rhumerus 0.318098 45.2607 -81.9218
rradius 37.8808
rwrist 21.0867
rhand -49.3703 -3.90034
rfingers 7.12502
rthumb -21.9846 -32.671
lclavicle 1.66979e-014 -4.45278e-014
lhumerus -8.43604 -13.5468 69.9906
lradius 37.9567
lwrist -29.7659
lhand -36.2909 -42.396
lfingers 7.12502
lthumb -9.39051 -12.6252
rfemur -27.5835 1.88756 27.7881
rtibia 31.4591
rfoot -31.034 -7.19554
rtoes 9.57666
lfemur -28.9294 4.93269 -15.5184
ltibia 34.853
lfoot -30.1532 -2.18842
ltoes 0.138379
2311
root 12.9461 27.3094 46.1422 195.428 0.287054 -174.436
lowerback 48.8383 -8.56658 6.01629
upperback -4.67262 -7.04396 -0.310025
thorax -28.0964 -2.9374 0.853338
lowerneck -27.0154 10.9523 -34.5146
upperneck 18.1897 23.1632 24.8274
head 2.50902 12.0754 14.6388
rclavicle 3.4191e-014 -3.65764e-014
rhumerus 0.942056 45.4576 -81.6981
rradius 37.8346
rwrist 20.4757
rhand -48.1645 4.3416
rfingers 7.12502
rthumb -20.8265 -24.5606
lclavicle 3.4191e-014 -3.65764e-014
lhumerus -8.13299 -13.3974 69.9097
lradius 37.8826
lwrist -29.5583
lhand -36.0112 -42.0119
lfingers 7.12502
lthumb -9.12059 -12.2291
rfemur -27.7068 1.59195 27.6664
rtibia 31.4666
rfoot -31.1221 -7.04547
rtoes 9.9736
lfemur -29.1222 4.46409 -15.6268
ltibia 34.8886
lfoot -30.0345 -2.0851
ltoes 0.0692849
2312
root 12.9247 27.3063 46.1803 195.444 -0.0403025 -174.363
lowerback 48.6262 -8.85997 6.48883
upperback -4.65994 -7.1633 -0.321084
thorax -28.0655 -3.04504 0.68375
lowerneck -26.9428 10.8803 -34.6268
upperneck 18.0398 23.0805 24.6828
head 2.49043 12.0159 14.5929
rclavicle 3.18055e-015 -4.13472e-014
rhumerus 1.35645 45.388 -81.5404
rradius 37.7006
rwrist 20.1148
rhand -48.0017 3.44683
rfingers 7.12502
rthumb -20.6701 -25.4725
lclavicle 3.18055e-015 -4.13472e-014
lhumerus -7.77973 -13.4998 69.8948
lradius 37.664
lwrist -29.306
lhand -36.0706 -41.3676
lfingers 7.12502
lthumb -9.17792 -11.5873
rfemur -27.8696 1.30861 27.7506
rtibia 31.4776
rfoot -31.1201 -6.95749
rtoes 10.4124
lfemur -29.3777 4.15187 -15.5541
ltibia 34.9334
lfoot -29.9378 -2.05445
ltoes 0.104833
2313
root 12.9023 27.3025 46.2178 195.383 -0.254288 -174.407
lowerback 48.5319 -9.07072 6.77014
upperback -4.65525 -7.28475 -0.347229
thorax -28.065 -3.12587 0.591379
lowerneck -27.0015 10.788 -34.612
upperneck 18.1847 22.9682 24.5991
head 2.59193 11.9407 14.6048
rclavicle -6.99722e-014 2.70347e-014
rhumerus 1.69348 45.1659 -81.4301
rradius 37.5406
rwrist 20.0928
rhand -47.7876 3.28141
rfingers 7.12502
rthumb -20.4643 -25.6601
lclavicle -6.99722e-014 2.70347e-014
lhumerus -7.42179 -13.63 69.8727
lradius 37.2487
lwrist -29.6673
lhand -37.0249 -40.8037
lfingers 7.12502
lthumb -10.0987 -11.066
rfemur -27.9876 0.957432 27.7166
rtibia 31.5431
rfoot -31.0381 -7.02317
rtoes 10.4013
lfemur -29.4867 3.94148 -15.6324
ltibia 34.9338
lfoot -29.8613 -2.09747
ltoes 0.70242
2314
root 12.8836 27.2981 46.2605 195.117 -0.485576 -174.806
lowerback 48.741 -9.29238 6.72487
upperback -4.64801 -7.60751 -0.457928
thorax -28.135 -3.22556 0.682245
lowerneck -27.2541 10.5976 -34.5684
upperneck 18.39 22.7752 24.6143
head 2.75113 11.8414 14.6932
rclavicle 6.36111e-015 -2.38542e-014
rhumerus 2.13779 44.9804 -81.4001
rradius 37.2176
rwrist 20.47
rhand -47.7963 3.59651
rfingers 7.12502
rthumb -20.4727 -25.3441
lclavicle 6.36111e-015 -2.38542e-014
lhumerus -7.06523 -13.4136 69.7783
lradius 36.7921
lwrist -30.5824
lhand -37.9142 -40.9126
lfingers 7.12502
lthumb -10.9565 -11.2185
rfemur -27.922 0.566697 27.2982
rtibia 31.6361
rfoot -30.999 -7.19888
rtoes 10.0832
lfemur -29.3946 3.60501 -16.0746
ltibia 34.9237
lfoot -29.7658 -2.10137
ltoes 0.981035
2315
root 12.8689 27.2929 46.3046 194.947 -0.803977 -174.93
lowerback 48.7323 -9.10283 7.48235
upperback -4.61872 -8.00503 -0.552294
thorax -28.1695 -3.90297 0.682907
lowerneck -27.553 10.3677 -34.6291
upperneck 18.5778 22.5759 24.6821
head 2.8947 11.7422 14.8166
rclavicle 6.36111e-014 -3.33958e-014
rhumerus 2.65235 44.8398 -81.3816
rradius 36.7796
rwrist 20.9493
rhand -48.6862 -4.09341
rfingers 7.12502
rthumb -21.3276 -32.9398
lclavicle 6.36111e-014 -3.33958e-014
lhumerus -6.76632 -13.4212 69.7052
lradius 36.4609
lwrist -30.6092
lhand -38.4649 -40.5395
lfingers 7.12502
lthumb -11.4876 -10.8742
rfemur -27.986 0.334808 27.1684
rtibia 31.763
rfoot -31.0888 -7.29989
rtoes 10.0371
lfemur -29.445 3.37033 -16.2152
ltibia 34.8833
lfoot -29.593 -2.22189
ltoes 0.536231
2316
root 12.8576 27.2879 46.3465 194.926 -0.962341 -174.74
lowerback 48.628 -9.27383 7.78777
upperback -4.60878 -8.03912 -0.512323
thorax -28.1432 -3.95158 0.606635
lowerneck -27.6084 10.1949 -34.689
upperneck 18.643 22.38 24.6026
head 2.98862 11.6265 14.8442
rclavicle -4.29375e-014 2.8625e-014
rhumerus 3.15063 44.7581 -81.2999
rradius 36.3782
rwrist 21.2016
rhand -48.235 1.7914
rfingers 7.12502
rthumb -20.8942 -27.1034
lclavicle -4.29375e-014 2.8625e-014
lhumerus -6.47179 -13.1741 69.5845
lradius 36.2037
lwrist -31.3297
lhand -38.8675 -40.5544
lfingers 7.12502
lthumb -11.8759 -10.9112
rfemur -28.1904 0.266194 27.3448
rtibia 31.9024
rfoot -31.1852 -7.22376
rtoes 9.78652
lfemur -29.591 3.32844 -16.0518
ltibia 34.8278
lfoot -29.4048 -2.27364
ltoes 0.116004
2317
root 12.8472 27.2863 46.3886 194.824 -0.937652 -174.777
lowerback 48.7107 -9.29162 7.75035
upperback -4.60275 -8.08305 -0.519856
thorax -28.1538 -3.96163 0.646912
lowerneck -27.839 9.95612 -34.5485
upperneck 19.0288 22.0865 24.5333
head 3.25467 11.4565 14.9243
rclavicle -7.15625e-015 0
rhumerus 3.68334 44.6584 -81.1285
rradius 36.0471
rwrist 21.2523
rhand -47.7626 3.11175
rfingers 7.12502
rthumb -20.4403 -25.8324
lclavicle -7.15625e-015 0
lhumerus -6.16233 -13.287 69.508
lradius 36.027
lwrist -31.2997
lhand -39.1778 -39.6037
lfingers 7.12502
lthumb -12.1751 -9.978
rfemur -28.2373 0.165271 27.2497
rtibia 31.9728
rfoot -31.1879 -6.997
rtoes 10.1551
lfemur -29.5928 3.24407 -16.1487
ltibia 34.8056
lfoot -29.2993 -2.08453
ltoes 0.0128214
2318
root 12.8339 27.283 46.4302 194.669 -1.02582 -174.863
lowerback 48.8262 -9.37777 7.77097
upperback -4.58255 -8.18498 -0.544534
thorax -28.1601 -4.00039 0.677081
lowerneck -28.2025 9.6306 -34.2506
upperneck 19.6566 21.6697 24.438
head 3.67289 11.2156 15.0396
rclavicle 7.15625e-015 1.59028e-014
rhumerus 4.28416 44.6482 -80.8782
rradius 35.8239
rwrist 20.8273
rhand -47.1936 3.54584
rfingers 7.12502
rthumb -19.8934 -25.456
lclavicle 7.15625e-015 1.59028e-014
lhumerus -5.72388 -12.9256 69.487
lradius 35.6858
lwrist -31.8352
lhand -39.186 -39.5876
lfingers 7.12502
lthumb -12.183 -9.96241
rfemur -28.2292 0.0273681 27.1288
rtibia 31.9802
rfoot -31.1122 -6.92901
rtoes 11.1503
lfemur -29.605 3.11664 -16.2725
ltibia 34.7935
lfoot -29.1385 -2.17064
ltoes 0.257172
